<mxfile host="Electron" agent="Mozilla/5.0 (Windows NT 10.0; Win64; x64) AppleWebKit/537.36 (KHTML, like Gecko) draw.io/26.2.15 Chrome/134.0.6998.205 Electron/35.2.1 Safari/537.36" version="26.2.15">
  <diagram id="C5RBs43oDa-KdzZeNtuy" name="Page-1">
    <mxGraphModel dx="3489" dy="894" grid="0" gridSize="10" guides="1" tooltips="1" connect="1" arrows="1" fold="1" page="0" pageScale="1" pageWidth="827" pageHeight="1169" background="#ffffff" math="0" shadow="0">
      <root>
        <mxCell id="WIyWlLk6GJQsqaUBKTNV-0" />
        <mxCell id="WIyWlLk6GJQsqaUBKTNV-1" parent="WIyWlLk6GJQsqaUBKTNV-0" />
        <mxCell id="vE8cVtgclTKIGlRAaDoy-17" value="" style="rounded=0;whiteSpace=wrap;html=1;fillColor=none;fontColor=#000000;strokeColor=#006EAF;rotation=0;glass=0;" parent="WIyWlLk6GJQsqaUBKTNV-1" vertex="1">
          <mxGeometry x="-835" y="156" width="965" height="1093" as="geometry" />
        </mxCell>
        <mxCell id="jzO3m--2G4woEG_lxLCf-40" value="MQTT Message - slot7_state" style="swimlane;fontStyle=1;align=center;verticalAlign=top;childLayout=stackLayout;horizontal=1;startSize=26;horizontalStack=0;resizeParent=1;resizeParentMax=0;resizeLast=0;collapsible=1;marginBottom=0;whiteSpace=wrap;html=1;strokeColor=#457B9D;fontColor=#000000;fillColor=#A8DADC;rounded=1;" parent="WIyWlLk6GJQsqaUBKTNV-1" vertex="1">
          <mxGeometry x="-769" y="386" width="411" height="367" as="geometry" />
        </mxCell>
        <mxCell id="jzO3m--2G4woEG_lxLCf-41" value="&lt;div&gt;+ topic: sys/device/{deviceId}/command_reply/slot7-state&lt;/div&gt;&lt;div&gt;+ type: &#39;command_reply&#39; (str)&lt;/div&gt;&lt;div&gt;+ version: 1 (int)&lt;/div&gt;&lt;div&gt;+ session: (str)&lt;/div&gt;&lt;div&gt;+ deviceId: (str)&lt;/div&gt;&lt;div&gt;+ time: [Current Time] (UNIX Timestamp) (int)&lt;/div&gt;" style="text;strokeColor=none;fillColor=none;align=left;verticalAlign=top;spacingLeft=4;spacingRight=4;overflow=hidden;rotatable=0;points=[[0,0.5],[1,0.5]];portConstraint=eastwest;whiteSpace=wrap;html=1;fontColor=#000000;rounded=1;flipH=1;flipV=1;" parent="jzO3m--2G4woEG_lxLCf-40" vertex="1">
          <mxGeometry y="26" width="411" height="99" as="geometry" />
        </mxCell>
        <mxCell id="jzO3m--2G4woEG_lxLCf-42" value="" style="line;strokeWidth=1;fillColor=none;align=left;verticalAlign=middle;spacingTop=-1;spacingLeft=3;spacingRight=3;rotatable=0;labelPosition=right;points=[];portConstraint=eastwest;strokeColor=inherit;fontColor=#000000;rounded=1;" parent="jzO3m--2G4woEG_lxLCf-40" vertex="1">
          <mxGeometry y="125" width="411" height="2" as="geometry" />
        </mxCell>
        <mxCell id="jzO3m--2G4woEG_lxLCf-43" value="&lt;font style=&quot;&quot;&gt;+&lt;span style=&quot;background-color: transparent; white-space: pre;&quot;&gt; spdAlert: (bool)&lt;/span&gt;&lt;/font&gt;&lt;div&gt;&lt;span style=&quot;background-color: transparent; white-space: pre;&quot;&gt;&lt;font style=&quot;&quot;&gt;+ spdSurge: (no. of surges) (int)&lt;/font&gt;&lt;/span&gt;&lt;/div&gt;&lt;div&gt;&lt;span style=&quot;background-color: transparent; white-space: pre;&quot;&gt;&lt;font style=&quot;&quot;&gt;+ ardState: (bool)&lt;/font&gt;&lt;/span&gt;&lt;/div&gt;&lt;div&gt;&lt;span style=&quot;background-color: transparent; white-space: pre;&quot;&gt;&lt;font style=&quot;&quot;&gt;+ ardAlert: (bool)&lt;/font&gt;&lt;/span&gt;&lt;/div&gt;&lt;div&gt;&lt;span style=&quot;background-color: transparent; white-space: pre;&quot;&gt;&lt;font style=&quot;&quot;&gt;+ ardVoltage: (V) (int)&lt;/font&gt;&lt;/span&gt;&lt;/div&gt;&lt;div&gt;&lt;span style=&quot;background-color: transparent; white-space: pre;&quot;&gt;&lt;font style=&quot;&quot;&gt;+ ardCurrent: (mA) (int)&lt;/font&gt;&lt;/span&gt;&lt;/div&gt;&lt;div&gt;&lt;span style=&quot;background-color: transparent; white-space: pre;&quot;&gt;&lt;font style=&quot;&quot;&gt;+ autoLight: (bool)&lt;/font&gt;&lt;/span&gt;&lt;/div&gt;&lt;div&gt;&lt;span style=&quot;background-color: transparent; white-space: pre;&quot;&gt;&lt;font style=&quot;&quot;&gt;+ doorState: (bool)&lt;/font&gt;&lt;/span&gt;&lt;/div&gt;&lt;div&gt;&lt;span style=&quot;background-color: transparent; white-space: pre;&quot;&gt;&lt;font style=&quot;&quot;&gt;+ lightState: (bool)&lt;/font&gt;&lt;/span&gt;&lt;/div&gt;&lt;div&gt;&lt;span style=&quot;background-color: transparent; white-space: pre;&quot;&gt;&lt;font style=&quot;&quot;&gt;+ heaterState: (bool)&lt;/font&gt;&lt;/span&gt;&lt;/div&gt;&lt;div&gt;&lt;span style=&quot;background-color: transparent; white-space: pre;&quot;&gt;&lt;font style=&quot;&quot;&gt;+ waterAlert: (bool)&lt;/font&gt;&lt;/span&gt;&lt;/div&gt;&lt;div&gt;&lt;span style=&quot;background-color: transparent; white-space: pre;&quot;&gt;&lt;font style=&quot;&quot;&gt;+ fan_1_id: (int)&lt;/font&gt;&lt;/span&gt;&lt;/div&gt;&lt;div&gt;&lt;span style=&quot;background-color: transparent; white-space: pre;&quot;&gt;&lt;font style=&quot;&quot;&gt;+ fan_1_fanSpeed: (rpm) (int)&lt;/font&gt;&lt;/span&gt;&lt;/div&gt;&lt;div&gt;&lt;span style=&quot;background-color: transparent; white-space: pre;&quot;&gt;&lt;font style=&quot;&quot;&gt;+ fan_1_fanAlert: (bool)&lt;/font&gt;&lt;/span&gt;&lt;/div&gt;&lt;div&gt;&lt;span style=&quot;background-color: transparent; white-space: pre;&quot;&gt;&lt;font style=&quot;&quot;&gt;+ fan_1_fanState: (bool)&lt;/font&gt;&lt;/span&gt;&lt;/div&gt;" style="text;strokeColor=none;fillColor=none;align=left;verticalAlign=top;spacingLeft=4;spacingRight=4;overflow=hidden;rotatable=0;points=[[0,0.5],[1,0.5]];portConstraint=eastwest;whiteSpace=wrap;html=1;fontColor=#000000;rounded=1;" parent="jzO3m--2G4woEG_lxLCf-40" vertex="1">
          <mxGeometry y="127" width="411" height="240" as="geometry" />
        </mxCell>
        <mxCell id="vE8cVtgclTKIGlRAaDoy-0" value="MQTT Message - system_state" style="swimlane;fontStyle=1;align=center;verticalAlign=top;childLayout=stackLayout;horizontal=1;startSize=26;horizontalStack=0;resizeParent=1;resizeParentMax=0;resizeLast=0;collapsible=1;marginBottom=0;whiteSpace=wrap;html=1;strokeColor=#457B9D;fontColor=#000000;fillColor=#A8DADC;rounded=1;" parent="WIyWlLk6GJQsqaUBKTNV-1" vertex="1">
          <mxGeometry x="-335" y="388" width="411" height="359" as="geometry" />
        </mxCell>
        <mxCell id="vE8cVtgclTKIGlRAaDoy-1" value="&lt;div&gt;+ topic: sys/device/{deviceId}/command_reply/system-state&lt;/div&gt;&lt;div&gt;+ type: &#39;command_reply&#39; (str)&lt;/div&gt;&lt;div&gt;+ version: 1 (int)&lt;/div&gt;&lt;div&gt;+ session: (str)&lt;/div&gt;&lt;div&gt;+ deviceId: (str)&lt;/div&gt;&lt;div&gt;+ time: [Current Time] (UNIX Timestamp) (int)&lt;/div&gt;" style="text;strokeColor=none;fillColor=none;align=left;verticalAlign=top;spacingLeft=4;spacingRight=4;overflow=hidden;rotatable=0;points=[[0,0.5],[1,0.5]];portConstraint=eastwest;whiteSpace=wrap;html=1;fontColor=#000000;rounded=1;flipH=1;flipV=1;" parent="vE8cVtgclTKIGlRAaDoy-0" vertex="1">
          <mxGeometry y="26" width="411" height="95" as="geometry" />
        </mxCell>
        <mxCell id="vE8cVtgclTKIGlRAaDoy-2" value="" style="line;strokeWidth=1;fillColor=none;align=left;verticalAlign=middle;spacingTop=-1;spacingLeft=3;spacingRight=3;rotatable=0;labelPosition=right;points=[];portConstraint=eastwest;strokeColor=inherit;fontColor=#000000;rounded=1;" parent="vE8cVtgclTKIGlRAaDoy-0" vertex="1">
          <mxGeometry y="121" width="411" height="8" as="geometry" />
        </mxCell>
        <mxCell id="vE8cVtgclTKIGlRAaDoy-3" value="&lt;font style=&quot;&quot;&gt;+ dateTime: (UNIX Timestamp) (int)&lt;/font&gt;&lt;div&gt;&lt;font style=&quot;&quot;&gt;+ runTime: (UNIX Timestamp) (int)&lt;/font&gt;&lt;/div&gt;&lt;div&gt;&lt;font style=&quot;&quot;&gt;+ &lt;b&gt;cpuUsage&lt;/b&gt;:&amp;nbsp;&lt;span style=&quot;background-color: transparent;&quot;&gt;(hundredths percentage, e.g. 6562 means 65.62%)&amp;nbsp;&lt;/span&gt;&lt;span style=&quot;background-color: transparent;&quot;&gt;(int)&lt;/span&gt;&lt;/font&gt;&lt;/div&gt;&lt;div&gt;&lt;font style=&quot;&quot;&gt;+&amp;nbsp;&lt;span style=&quot;background-color: transparent;&quot;&gt;memTotalSize: (bytes) (int)&lt;/span&gt;&lt;/font&gt;&lt;/div&gt;&lt;div&gt;&lt;font style=&quot;&quot;&gt;+ memFreeSize: (bytes) (int)&lt;/font&gt;&lt;/div&gt;&lt;div&gt;&lt;font style=&quot;&quot;&gt;+ &lt;b&gt;memUsage&lt;/b&gt;:&amp;nbsp;&lt;span style=&quot;background-color: transparent;&quot;&gt;(hundredths percentage, e.g. 3663 means 36.63%)&amp;nbsp;&lt;/span&gt;&lt;span style=&quot;background-color: transparent;&quot;&gt;(int)&lt;/span&gt;&lt;/font&gt;&lt;/div&gt;&lt;div&gt;&lt;font style=&quot;&quot;&gt;+ storageTotalSize: (bytes) (int)&lt;/font&gt;&lt;/div&gt;&lt;div&gt;&lt;font style=&quot;&quot;&gt;+ storageFreeSize: (bytes) (int)&lt;/font&gt;&lt;/div&gt;&lt;div&gt;&lt;font style=&quot;&quot;&gt;+ &lt;b&gt;storageUsage&lt;/b&gt;:&amp;nbsp;(hundredths percentage, e.g. 32 means 0.32%) (int)&lt;/font&gt;&lt;/div&gt;&lt;div&gt;&lt;font style=&quot;&quot;&gt;+ temperature: (â„ƒ) (int)&lt;/font&gt;&lt;/div&gt;&lt;div&gt;&lt;font style=&quot;&quot;&gt;+ &lt;b&gt;humidity&lt;/b&gt;:&amp;nbsp;(whole percentage, e.g. 35 means 35%)&lt;span style=&quot;background-color: transparent;&quot;&gt;&amp;nbsp;(int)&lt;/span&gt;&lt;/font&gt;&lt;/div&gt;&lt;div&gt;&lt;font style=&quot;&quot;&gt;+ poeRealPower: (PoE Real-time Power, units unsure) (int)&lt;/font&gt;&lt;/div&gt;&lt;div&gt;&lt;br&gt;&lt;/div&gt;" style="text;strokeColor=none;fillColor=none;align=left;verticalAlign=top;spacingLeft=4;spacingRight=4;overflow=hidden;rotatable=0;points=[[0,0.5],[1,0.5]];portConstraint=eastwest;whiteSpace=wrap;html=1;fontColor=#000000;rounded=1;" parent="vE8cVtgclTKIGlRAaDoy-0" vertex="1">
          <mxGeometry y="129" width="411" height="230" as="geometry" />
        </mxCell>
        <mxCell id="vE8cVtgclTKIGlRAaDoy-4" value="MQTT Message - flow_monitor" style="swimlane;fontStyle=1;align=center;verticalAlign=top;childLayout=stackLayout;horizontal=1;startSize=26;horizontalStack=0;resizeParent=1;resizeParentMax=0;resizeLast=0;collapsible=1;marginBottom=0;whiteSpace=wrap;html=1;strokeColor=#457B9D;fontColor=#000000;fillColor=#A8DADC;rounded=1;" parent="WIyWlLk6GJQsqaUBKTNV-1" vertex="1">
          <mxGeometry x="-769" y="771" width="411" height="404" as="geometry" />
        </mxCell>
        <mxCell id="vE8cVtgclTKIGlRAaDoy-5" value="&lt;div&gt;+ topic: sys/device/{deviceId}/command_reply/switch-port-statistics&lt;/div&gt;&lt;div&gt;+ type: &#39;command_reply&#39; (str)&lt;/div&gt;&lt;div&gt;+ version: 1 (int)&lt;/div&gt;&lt;div&gt;+ session: (str)&lt;/div&gt;&lt;div&gt;+ deviceId: (str)&lt;/div&gt;&lt;div&gt;+ time: [Current Time] (UNIX Timestamp) (int)&lt;/div&gt;" style="text;strokeColor=none;fillColor=none;align=left;verticalAlign=top;spacingLeft=4;spacingRight=4;overflow=hidden;rotatable=0;points=[[0,0.5],[1,0.5]];portConstraint=eastwest;whiteSpace=wrap;html=1;fontColor=#000000;rounded=1;flipH=1;flipV=1;" parent="vE8cVtgclTKIGlRAaDoy-4" vertex="1">
          <mxGeometry y="26" width="411" height="108" as="geometry" />
        </mxCell>
        <mxCell id="vE8cVtgclTKIGlRAaDoy-6" value="" style="line;strokeWidth=1;fillColor=none;align=left;verticalAlign=middle;spacingTop=-1;spacingLeft=3;spacingRight=3;rotatable=0;labelPosition=right;points=[];portConstraint=eastwest;strokeColor=inherit;fontColor=#000000;rounded=1;" parent="vE8cVtgclTKIGlRAaDoy-4" vertex="1">
          <mxGeometry y="134" width="411" height="8" as="geometry" />
        </mxCell>
        <mxCell id="vE8cVtgclTKIGlRAaDoy-7" value="&lt;div&gt;Field: 1_id, Type: int&lt;/div&gt;&lt;div&gt;Field: 1_name, Type: str&lt;/div&gt;&lt;div&gt;Field: 1_rxByte, Type: str (Received Bytes)&lt;/div&gt;&lt;div&gt;Field: 1_txByte, Type: str (Sent Bytes)&lt;/div&gt;&lt;div&gt;Field: 1_rxPacket, Type: int (Received Packets)&lt;/div&gt;&lt;div&gt;Field: 1_txPacket, Type: int (Sent Packets)&lt;/div&gt;&lt;div&gt;Field: 1_rxError, Type: int (Received Error Packets)&lt;/div&gt;&lt;div&gt;Field: 1_txError, Type: int (Sent Error Packets)&lt;/div&gt;&lt;div&gt;Field: 2_id, Type: int&lt;/div&gt;&lt;div&gt;Field: 2_name, Type: str&lt;/div&gt;&lt;div&gt;Field: 2_rxByte, Type: str (Received Bytes)&lt;/div&gt;&lt;div&gt;Field: 2_txByte, Type: str (Sent Bytes)&lt;/div&gt;&lt;div&gt;Field: 2_rxPacket, Type: int (Received Packets)&lt;/div&gt;&lt;div&gt;Field: 2_txPacket, Type: int (Sent Packets)&lt;/div&gt;&lt;div&gt;Field: 2_rxError, Type: int (Received Error Packets)&lt;/div&gt;&lt;div&gt;Field: 2_txError, Type: int (Sent Error Packets)&lt;/div&gt;&lt;div&gt;Fields: 3, 4, 5, 6, 7, 8, 9, 10 (up to 10 ports for flow monitoring)&lt;/div&gt;" style="text;strokeColor=none;fillColor=none;align=left;verticalAlign=top;spacingLeft=4;spacingRight=4;overflow=hidden;rotatable=0;points=[[0,0.5],[1,0.5]];portConstraint=eastwest;whiteSpace=wrap;html=1;fontColor=#000000;rounded=1;" parent="vE8cVtgclTKIGlRAaDoy-4" vertex="1">
          <mxGeometry y="142" width="411" height="262" as="geometry" />
        </mxCell>
        <mxCell id="vE8cVtgclTKIGlRAaDoy-12" value="MQTT Message - connect" style="swimlane;fontStyle=1;align=center;verticalAlign=top;childLayout=stackLayout;horizontal=1;startSize=26;horizontalStack=0;resizeParent=1;resizeParentMax=0;resizeLast=0;collapsible=1;marginBottom=0;whiteSpace=wrap;html=1;strokeColor=#457B9D;fontColor=#000000;fillColor=#A8DADC;rounded=1;" parent="WIyWlLk6GJQsqaUBKTNV-1" vertex="1">
          <mxGeometry x="-335" y="1044" width="411" height="174" as="geometry" />
        </mxCell>
        <mxCell id="vE8cVtgclTKIGlRAaDoy-13" value="&lt;div&gt;+ topic: sys/device/{deviceId}/connect&lt;/div&gt;&lt;div&gt;+ type: &#39;connect&#39; (str)&lt;/div&gt;&lt;div&gt;+ version: 1 (int)&lt;/div&gt;&lt;div&gt;+ session: (str)&lt;/div&gt;&lt;div&gt;+ deviceId: (str)&lt;/div&gt;&lt;div&gt;+ time: [Current Time] (UNIX Timestamp) (int)&lt;/div&gt;" style="text;strokeColor=none;fillColor=none;align=left;verticalAlign=top;spacingLeft=4;spacingRight=4;overflow=hidden;rotatable=0;points=[[0,0.5],[1,0.5]];portConstraint=eastwest;whiteSpace=wrap;html=1;fontColor=#000000;rounded=1;" parent="vE8cVtgclTKIGlRAaDoy-12" vertex="1">
          <mxGeometry y="26" width="411" height="97" as="geometry" />
        </mxCell>
        <mxCell id="vE8cVtgclTKIGlRAaDoy-14" value="" style="line;strokeWidth=1;fillColor=none;align=left;verticalAlign=middle;spacingTop=-1;spacingLeft=3;spacingRight=3;rotatable=0;labelPosition=right;points=[];portConstraint=eastwest;strokeColor=inherit;fontColor=#000000;rounded=1;" parent="vE8cVtgclTKIGlRAaDoy-12" vertex="1">
          <mxGeometry y="123" width="411" height="8" as="geometry" />
        </mxCell>
        <mxCell id="vE8cVtgclTKIGlRAaDoy-15" value="+ data: (dict)&lt;div&gt;&lt;span style=&quot;white-space: pre;&quot;&gt;&#x9;&lt;/span&gt;+ securityMode: [&#39;none&#39;, &#39;static&#39;, &#39;ecdh&#39;] (list)&lt;br&gt;&lt;/div&gt;" style="text;strokeColor=none;fillColor=none;align=left;verticalAlign=top;spacingLeft=4;spacingRight=4;overflow=hidden;rotatable=0;points=[[0,0.5],[1,0.5]];portConstraint=eastwest;whiteSpace=wrap;html=1;fontColor=#000000;rounded=1;" parent="vE8cVtgclTKIGlRAaDoy-12" vertex="1">
          <mxGeometry y="131" width="411" height="43" as="geometry" />
        </mxCell>
        <mxCell id="vE8cVtgclTKIGlRAaDoy-18" value="" style="rounded=0;whiteSpace=wrap;html=1;fillColor=none;fontColor=#000000;strokeColor=#006EAF;" parent="WIyWlLk6GJQsqaUBKTNV-1" vertex="1">
          <mxGeometry x="-1839" y="156" width="965" height="1093" as="geometry" />
        </mxCell>
        <mxCell id="vE8cVtgclTKIGlRAaDoy-19" value="MQTT Message - slot7_state" style="swimlane;fontStyle=1;align=center;verticalAlign=top;childLayout=stackLayout;horizontal=1;startSize=26;horizontalStack=0;resizeParent=1;resizeParentMax=0;resizeLast=0;collapsible=1;marginBottom=0;whiteSpace=wrap;html=1;strokeColor=#457B9D;fontColor=#000000;fillColor=#A8DADC;rounded=1;" parent="WIyWlLk6GJQsqaUBKTNV-1" vertex="1">
          <mxGeometry x="-1771" y="396.5" width="411" height="222" as="geometry" />
        </mxCell>
        <mxCell id="vE8cVtgclTKIGlRAaDoy-20" value="&lt;div&gt;+ topic: sys/service/{deviceId}/command&lt;/div&gt;&lt;div&gt;+ type: &#39;command&#39; (str)&lt;/div&gt;&lt;div&gt;+ version: 1 (int)&lt;/div&gt;&lt;div&gt;+ session: (str)&lt;/div&gt;&lt;div&gt;+ deviceId: (str)&lt;/div&gt;&lt;div&gt;+ time: [Current Time] (UNIX Timestamp) (int)&lt;/div&gt;" style="text;strokeColor=none;fillColor=none;align=left;verticalAlign=top;spacingLeft=4;spacingRight=4;overflow=hidden;rotatable=0;points=[[0,0.5],[1,0.5]];portConstraint=eastwest;whiteSpace=wrap;html=1;fontColor=#000000;rounded=1;flipH=1;flipV=1;" parent="vE8cVtgclTKIGlRAaDoy-19" vertex="1">
          <mxGeometry y="26" width="411" height="108" as="geometry" />
        </mxCell>
        <mxCell id="vE8cVtgclTKIGlRAaDoy-21" value="" style="line;strokeWidth=1;fillColor=none;align=left;verticalAlign=middle;spacingTop=-1;spacingLeft=3;spacingRight=3;rotatable=0;labelPosition=right;points=[];portConstraint=eastwest;strokeColor=inherit;fontColor=#000000;rounded=1;" parent="vE8cVtgclTKIGlRAaDoy-19" vertex="1">
          <mxGeometry y="134" width="411" height="8" as="geometry" />
        </mxCell>
        <mxCell id="vE8cVtgclTKIGlRAaDoy-22" value="+ data: (dict)&lt;div&gt;&lt;span style=&quot;white-space: pre;&quot;&gt;&#x9;&lt;/span&gt;+ service: &#39;slot7&#39; (str)&lt;br&gt;&lt;/div&gt;&lt;div&gt;&lt;span style=&quot;white-space: pre;&quot;&gt;&#x9;&lt;/span&gt;+ method: &#39;state&#39; (str)&lt;br&gt;&lt;/div&gt;&lt;div&gt;&lt;span style=&quot;white-space: pre;&quot;&gt;&#x9;&lt;/span&gt;+ parms: {} (empty dict)&lt;br&gt;&lt;/div&gt;" style="text;strokeColor=none;fillColor=none;align=left;verticalAlign=top;spacingLeft=4;spacingRight=4;overflow=hidden;rotatable=0;points=[[0,0.5],[1,0.5]];portConstraint=eastwest;whiteSpace=wrap;html=1;fontColor=#000000;rounded=1;" parent="vE8cVtgclTKIGlRAaDoy-19" vertex="1">
          <mxGeometry y="142" width="411" height="80" as="geometry" />
        </mxCell>
        <mxCell id="vE8cVtgclTKIGlRAaDoy-23" value="MQTT Message - system_state" style="swimlane;fontStyle=1;align=center;verticalAlign=top;childLayout=stackLayout;horizontal=1;startSize=26;horizontalStack=0;resizeParent=1;resizeParentMax=0;resizeLast=0;collapsible=1;marginBottom=0;whiteSpace=wrap;html=1;strokeColor=#457B9D;fontColor=#000000;fillColor=#A8DADC;rounded=1;" parent="WIyWlLk6GJQsqaUBKTNV-1" vertex="1">
          <mxGeometry x="-1774" y="635" width="411" height="222" as="geometry" />
        </mxCell>
        <mxCell id="vE8cVtgclTKIGlRAaDoy-24" value="&lt;div&gt;+ topic: sys/service/{deviceId}/command&lt;/div&gt;&lt;div&gt;+ type: &#39;command&#39; (str)&lt;/div&gt;&lt;div&gt;+ version: 1 (int)&lt;/div&gt;&lt;div&gt;+ session: (str)&lt;/div&gt;&lt;div&gt;+ deviceId: (str)&lt;/div&gt;&lt;div&gt;+ time: [Current Time] (UNIX Timestamp) (int)&lt;/div&gt;" style="text;strokeColor=none;fillColor=none;align=left;verticalAlign=top;spacingLeft=4;spacingRight=4;overflow=hidden;rotatable=0;points=[[0,0.5],[1,0.5]];portConstraint=eastwest;whiteSpace=wrap;html=1;fontColor=#000000;rounded=1;flipH=1;flipV=1;" parent="vE8cVtgclTKIGlRAaDoy-23" vertex="1">
          <mxGeometry y="26" width="411" height="108" as="geometry" />
        </mxCell>
        <mxCell id="vE8cVtgclTKIGlRAaDoy-25" value="" style="line;strokeWidth=1;fillColor=none;align=left;verticalAlign=middle;spacingTop=-1;spacingLeft=3;spacingRight=3;rotatable=0;labelPosition=right;points=[];portConstraint=eastwest;strokeColor=inherit;fontColor=#000000;rounded=1;" parent="vE8cVtgclTKIGlRAaDoy-23" vertex="1">
          <mxGeometry y="134" width="411" height="8" as="geometry" />
        </mxCell>
        <mxCell id="vE8cVtgclTKIGlRAaDoy-26" value="+ data: (dict)&lt;div&gt;&lt;span style=&quot;white-space: pre;&quot;&gt;&#x9;&lt;/span&gt;+ service: &#39;system&#39; (str)&lt;br&gt;&lt;/div&gt;&lt;div&gt;&lt;span style=&quot;white-space: pre;&quot;&gt;&#x9;&lt;/span&gt;+ method: &#39;state&#39; (str)&lt;br&gt;&lt;/div&gt;&lt;div&gt;&lt;span style=&quot;white-space: pre;&quot;&gt;&#x9;&lt;/span&gt;+ parms: {} (empty dict)&lt;br&gt;&lt;/div&gt;" style="text;strokeColor=none;fillColor=none;align=left;verticalAlign=top;spacingLeft=4;spacingRight=4;overflow=hidden;rotatable=0;points=[[0,0.5],[1,0.5]];portConstraint=eastwest;whiteSpace=wrap;html=1;fontColor=#000000;rounded=1;" parent="vE8cVtgclTKIGlRAaDoy-23" vertex="1">
          <mxGeometry y="142" width="411" height="80" as="geometry" />
        </mxCell>
        <mxCell id="vE8cVtgclTKIGlRAaDoy-27" value="MQTT Message - flow_monitor" style="swimlane;fontStyle=1;align=center;verticalAlign=top;childLayout=stackLayout;horizontal=1;startSize=26;horizontalStack=0;resizeParent=1;resizeParentMax=0;resizeLast=0;collapsible=1;marginBottom=0;whiteSpace=wrap;html=1;strokeColor=#457B9D;fontColor=#000000;fillColor=#A8DADC;rounded=1;" parent="WIyWlLk6GJQsqaUBKTNV-1" vertex="1">
          <mxGeometry x="-1350" y="396.5" width="411" height="222" as="geometry" />
        </mxCell>
        <mxCell id="vE8cVtgclTKIGlRAaDoy-28" value="&lt;div&gt;+ topic: sys/service/{deviceId}/command&lt;/div&gt;&lt;div&gt;+ type: &#39;command&#39; (str)&lt;/div&gt;&lt;div&gt;+ version: 1 (int)&lt;/div&gt;&lt;div&gt;+ session: (str)&lt;/div&gt;&lt;div&gt;+ deviceId: (str)&lt;/div&gt;&lt;div&gt;+ time: [Current Time] (UNIX Timestamp) (int)&lt;/div&gt;" style="text;strokeColor=none;fillColor=none;align=left;verticalAlign=top;spacingLeft=4;spacingRight=4;overflow=hidden;rotatable=0;points=[[0,0.5],[1,0.5]];portConstraint=eastwest;whiteSpace=wrap;html=1;fontColor=#000000;rounded=1;flipH=1;flipV=1;" parent="vE8cVtgclTKIGlRAaDoy-27" vertex="1">
          <mxGeometry y="26" width="411" height="108" as="geometry" />
        </mxCell>
        <mxCell id="vE8cVtgclTKIGlRAaDoy-29" value="" style="line;strokeWidth=1;fillColor=none;align=left;verticalAlign=middle;spacingTop=-1;spacingLeft=3;spacingRight=3;rotatable=0;labelPosition=right;points=[];portConstraint=eastwest;strokeColor=inherit;fontColor=#000000;rounded=1;" parent="vE8cVtgclTKIGlRAaDoy-27" vertex="1">
          <mxGeometry y="134" width="411" height="8" as="geometry" />
        </mxCell>
        <mxCell id="vE8cVtgclTKIGlRAaDoy-30" value="+ data: (dict)&lt;div&gt;&lt;span style=&quot;white-space: pre;&quot;&gt;&#x9;&lt;/span&gt;+ service: &#39;swtch.port&#39; (str)&lt;br&gt;&lt;/div&gt;&lt;div&gt;&lt;span style=&quot;white-space: pre;&quot;&gt;&#x9;&lt;/span&gt;+ method: &#39;statistics&#39; (str)&lt;br&gt;&lt;/div&gt;&lt;div&gt;&lt;span style=&quot;white-space: pre;&quot;&gt;&#x9;&lt;/span&gt;+ parms: {} (empty dict)&lt;br&gt;&lt;/div&gt;" style="text;strokeColor=none;fillColor=none;align=left;verticalAlign=top;spacingLeft=4;spacingRight=4;overflow=hidden;rotatable=0;points=[[0,0.5],[1,0.5]];portConstraint=eastwest;whiteSpace=wrap;html=1;fontColor=#000000;rounded=1;" parent="vE8cVtgclTKIGlRAaDoy-27" vertex="1">
          <mxGeometry y="142" width="411" height="80" as="geometry" />
        </mxCell>
        <mxCell id="vE8cVtgclTKIGlRAaDoy-31" value="MQTT Message - connect_reply" style="swimlane;fontStyle=1;align=center;verticalAlign=top;childLayout=stackLayout;horizontal=1;startSize=26;horizontalStack=0;resizeParent=1;resizeParentMax=0;resizeLast=0;collapsible=1;marginBottom=0;whiteSpace=wrap;html=1;strokeColor=#457B9D;fontColor=#000000;fillColor=#A8DADC;rounded=1;" parent="WIyWlLk6GJQsqaUBKTNV-1" vertex="1">
          <mxGeometry x="-1562" y="868" width="411" height="209" as="geometry" />
        </mxCell>
        <mxCell id="vE8cVtgclTKIGlRAaDoy-32" value="&lt;div&gt;+ topic: sys/service/{deviceId}/connect_reply&lt;/div&gt;&lt;div&gt;+ type: &#39;connect_reply&#39; (str)&lt;/div&gt;&lt;div&gt;+ version: 1 (int)&lt;/div&gt;&lt;div&gt;+ session: (str)&lt;/div&gt;&lt;div&gt;+ deviceId: (str)&lt;/div&gt;&lt;div&gt;+ time: [Current Time] (UNIX Timestamp) (int)&lt;/div&gt;" style="text;strokeColor=none;fillColor=none;align=left;verticalAlign=top;spacingLeft=4;spacingRight=4;overflow=hidden;rotatable=0;points=[[0,0.5],[1,0.5]];portConstraint=eastwest;whiteSpace=wrap;html=1;fontColor=#000000;rounded=1;" parent="vE8cVtgclTKIGlRAaDoy-31" vertex="1">
          <mxGeometry y="26" width="411" height="97" as="geometry" />
        </mxCell>
        <mxCell id="vE8cVtgclTKIGlRAaDoy-33" value="" style="line;strokeWidth=1;fillColor=none;align=left;verticalAlign=middle;spacingTop=-1;spacingLeft=3;spacingRight=3;rotatable=0;labelPosition=right;points=[];portConstraint=eastwest;strokeColor=inherit;fontColor=#000000;rounded=1;" parent="vE8cVtgclTKIGlRAaDoy-31" vertex="1">
          <mxGeometry y="123" width="411" height="8" as="geometry" />
        </mxCell>
        <mxCell id="vE8cVtgclTKIGlRAaDoy-34" value="&lt;div&gt;+ response: (dict)&lt;div&gt;&lt;span style=&quot;white-space: pre;&quot;&gt;&#x9;&lt;/span&gt;+ security: &#39;none&#39; (int)&lt;/div&gt;&lt;/div&gt;+ data: (dict)&lt;div&gt;&lt;span style=&quot;white-space: pre;&quot;&gt;&#x9;&lt;/span&gt;+ security: &#39;none&#39; (str)&lt;br&gt;&lt;/div&gt;" style="text;strokeColor=none;fillColor=none;align=left;verticalAlign=top;spacingLeft=4;spacingRight=4;overflow=hidden;rotatable=0;points=[[0,0.5],[1,0.5]];portConstraint=eastwest;whiteSpace=wrap;html=1;fontColor=#000000;rounded=1;" parent="vE8cVtgclTKIGlRAaDoy-31" vertex="1">
          <mxGeometry y="131" width="411" height="78" as="geometry" />
        </mxCell>
        <mxCell id="vE8cVtgclTKIGlRAaDoy-35" value="MQTT Message - gps_config" style="swimlane;fontStyle=1;align=center;verticalAlign=top;childLayout=stackLayout;horizontal=1;startSize=26;horizontalStack=0;resizeParent=1;resizeParentMax=0;resizeLast=0;collapsible=1;marginBottom=0;whiteSpace=wrap;html=1;strokeColor=#457B9D;fontColor=#000000;fillColor=#A8DADC;rounded=1;" parent="WIyWlLk6GJQsqaUBKTNV-1" vertex="1">
          <mxGeometry x="-1350" y="635" width="411" height="222" as="geometry" />
        </mxCell>
        <mxCell id="vE8cVtgclTKIGlRAaDoy-36" value="&lt;div&gt;+ topic: sys/service/{deviceId}/command&lt;/div&gt;&lt;div&gt;+ type: &#39;command&#39; (str)&lt;/div&gt;&lt;div&gt;+ version: 1 (int)&lt;/div&gt;&lt;div&gt;+ session: (str)&lt;/div&gt;&lt;div&gt;+ deviceId: (str)&lt;/div&gt;&lt;div&gt;+ time: [Current Time] (UNIX Timestamp) (int)&lt;/div&gt;" style="text;strokeColor=none;fillColor=none;align=left;verticalAlign=top;spacingLeft=4;spacingRight=4;overflow=hidden;rotatable=0;points=[[0,0.5],[1,0.5]];portConstraint=eastwest;whiteSpace=wrap;html=1;fontColor=#000000;rounded=1;flipH=1;flipV=1;" parent="vE8cVtgclTKIGlRAaDoy-35" vertex="1">
          <mxGeometry y="26" width="411" height="108" as="geometry" />
        </mxCell>
        <mxCell id="vE8cVtgclTKIGlRAaDoy-37" value="" style="line;strokeWidth=1;fillColor=none;align=left;verticalAlign=middle;spacingTop=-1;spacingLeft=3;spacingRight=3;rotatable=0;labelPosition=right;points=[];portConstraint=eastwest;strokeColor=inherit;fontColor=#000000;rounded=1;" parent="vE8cVtgclTKIGlRAaDoy-35" vertex="1">
          <mxGeometry y="134" width="411" height="8" as="geometry" />
        </mxCell>
        <mxCell id="vE8cVtgclTKIGlRAaDoy-38" value="+ data: (dict)&lt;div&gt;&lt;span style=&quot;white-space: pre;&quot;&gt;&#x9;&lt;/span&gt;+ service: &#39;netdmate&#39; (str)&lt;br&gt;&lt;/div&gt;&lt;div&gt;&lt;span style=&quot;white-space: pre;&quot;&gt;&#x9;&lt;/span&gt;+ method: &#39;mobile.gpsGet&#39; (str)&lt;br&gt;&lt;/div&gt;&lt;div&gt;&lt;span style=&quot;white-space: pre;&quot;&gt;&#x9;&lt;/span&gt;+ parms: {&quot;name&quot;: &quot;lte1&quot;} (dict)&lt;br&gt;&lt;/div&gt;" style="text;strokeColor=none;fillColor=none;align=left;verticalAlign=top;spacingLeft=4;spacingRight=4;overflow=hidden;rotatable=0;points=[[0,0.5],[1,0.5]];portConstraint=eastwest;whiteSpace=wrap;html=1;fontColor=#000000;rounded=1;" parent="vE8cVtgclTKIGlRAaDoy-35" vertex="1">
          <mxGeometry y="142" width="411" height="80" as="geometry" />
        </mxCell>
        <mxCell id="vE8cVtgclTKIGlRAaDoy-8" value="MQTT Message - gps_config" style="swimlane;fontStyle=1;align=center;verticalAlign=top;childLayout=stackLayout;horizontal=1;startSize=26;horizontalStack=0;resizeParent=1;resizeParentMax=0;resizeLast=0;collapsible=1;marginBottom=0;whiteSpace=wrap;html=1;strokeColor=#457B9D;fontColor=#000000;fillColor=#A8DADC;rounded=1;" parent="WIyWlLk6GJQsqaUBKTNV-1" vertex="1">
          <mxGeometry x="-335" y="778" width="411" height="253" as="geometry" />
        </mxCell>
        <mxCell id="vE8cVtgclTKIGlRAaDoy-9" value="&lt;div&gt;+ topic: sys/device/{deviceId}/command_reply/netdmate-mobileGps-get&lt;/div&gt;&lt;div&gt;+ type: &#39;command_reply&#39; (str)&lt;/div&gt;&lt;div&gt;+ version: 1 (int)&lt;/div&gt;&lt;div&gt;+ session: (str)&lt;/div&gt;&lt;div&gt;+ deviceId: (str)&lt;/div&gt;&lt;div&gt;+ time: [Current Time] (UNIX Timestamp) (int)&lt;/div&gt;" style="text;strokeColor=none;fillColor=none;align=left;verticalAlign=top;spacingLeft=4;spacingRight=4;overflow=hidden;rotatable=0;points=[[0,0.5],[1,0.5]];portConstraint=eastwest;whiteSpace=wrap;html=1;fontColor=#000000;rounded=1;flipH=1;flipV=1;" parent="vE8cVtgclTKIGlRAaDoy-8" vertex="1">
          <mxGeometry y="26" width="411" height="108" as="geometry" />
        </mxCell>
        <mxCell id="vE8cVtgclTKIGlRAaDoy-10" value="" style="line;strokeWidth=1;fillColor=none;align=left;verticalAlign=middle;spacingTop=-1;spacingLeft=3;spacingRight=3;rotatable=0;labelPosition=right;points=[];portConstraint=eastwest;strokeColor=inherit;fontColor=#000000;rounded=1;" parent="vE8cVtgclTKIGlRAaDoy-8" vertex="1">
          <mxGeometry y="134" width="411" height="8" as="geometry" />
        </mxCell>
        <mxCell id="vE8cVtgclTKIGlRAaDoy-11" value="&lt;div&gt;Field: latitude, Type: float (absolute value, multiply with -1 if &#39;S&#39;)&lt;/div&gt;&lt;div&gt;Field: latitude_h, Type: str (&#39;N&#39; or &#39;S&#39; hemisphere)&lt;/div&gt;&lt;div&gt;Field: longitude, Type: float (absolute value, multiply with -1 if &#39;W&#39;)&lt;/div&gt;&lt;div&gt;Field: longitude_h, Type: str (&#39;W&#39; or &#39;E&#39; hemisphere)&lt;/div&gt;&lt;div&gt;Field: altitude, Type: int&lt;/div&gt;&lt;div&gt;Field: altitude_u, Type: str (&#39;m&#39; for meters above sea level, presumably)&lt;/div&gt;" style="text;strokeColor=none;fillColor=none;align=left;verticalAlign=top;spacingLeft=4;spacingRight=4;overflow=hidden;rotatable=0;points=[[0,0.5],[1,0.5]];portConstraint=eastwest;whiteSpace=wrap;html=1;fontColor=#000000;rounded=1;" parent="vE8cVtgclTKIGlRAaDoy-8" vertex="1">
          <mxGeometry y="142" width="411" height="111" as="geometry" />
        </mxCell>
        <mxCell id="vE8cVtgclTKIGlRAaDoy-42" value="" style="rounded=0;whiteSpace=wrap;html=1;fillColor=none;fontColor=#000000;strokeColor=#006EAF;" parent="WIyWlLk6GJQsqaUBKTNV-1" vertex="1">
          <mxGeometry x="172" y="156" width="965" height="1093" as="geometry" />
        </mxCell>
        <mxCell id="vE8cVtgclTKIGlRAaDoy-49" value="Measurement - device_locations" style="swimlane;fontStyle=1;align=center;verticalAlign=top;childLayout=stackLayout;horizontal=1;startSize=26;horizontalStack=0;resizeParent=1;resizeParentMax=0;resizeLast=0;collapsible=1;marginBottom=0;whiteSpace=wrap;html=1;strokeColor=#457B9D;fontColor=#000000;fillColor=#A8DADC;rounded=1;" parent="WIyWlLk6GJQsqaUBKTNV-1" vertex="1">
          <mxGeometry x="690" y="402" width="411" height="125" as="geometry" />
        </mxCell>
        <mxCell id="vE8cVtgclTKIGlRAaDoy-50" value="&lt;div&gt;&lt;font style=&quot;&quot;&gt;+ tag: deviceId (str)&lt;/font&gt;&lt;/div&gt;&lt;div&gt;&lt;font style=&quot;&quot;&gt;+ time: time&amp;nbsp;&lt;span style=&quot;background-color: transparent;&quot;&gt;(UNIX Timestamp) (int)&lt;/span&gt;&lt;/font&gt;&lt;/div&gt;" style="text;strokeColor=none;fillColor=none;align=left;verticalAlign=top;spacingLeft=4;spacingRight=4;overflow=hidden;rotatable=0;points=[[0,0.5],[1,0.5]];portConstraint=eastwest;whiteSpace=wrap;html=1;fontColor=#000000;rounded=1;flipH=1;flipV=1;" parent="vE8cVtgclTKIGlRAaDoy-49" vertex="1">
          <mxGeometry y="26" width="411" height="43" as="geometry" />
        </mxCell>
        <mxCell id="vE8cVtgclTKIGlRAaDoy-51" value="" style="line;strokeWidth=1;fillColor=none;align=left;verticalAlign=middle;spacingTop=-1;spacingLeft=3;spacingRight=3;rotatable=0;labelPosition=right;points=[];portConstraint=eastwest;strokeColor=inherit;fontColor=#000000;rounded=1;" parent="vE8cVtgclTKIGlRAaDoy-49" vertex="1">
          <mxGeometry y="69" width="411" height="8" as="geometry" />
        </mxCell>
        <mxCell id="vE8cVtgclTKIGlRAaDoy-52" value="&lt;div&gt;&lt;font style=&quot;&quot;&gt;+ field: latitude (actual coordinate with hemisphere accounted for, float)&lt;/font&gt;&lt;/div&gt;&lt;div&gt;&lt;font style=&quot;&quot;&gt;+ field: longitude&amp;nbsp;&lt;span style=&quot;background-color: transparent;&quot;&gt;(actual coordinate with hemisphere accounted for, float)&lt;/span&gt;&lt;/font&gt;&lt;/div&gt;" style="text;strokeColor=none;fillColor=none;align=left;verticalAlign=top;spacingLeft=4;spacingRight=4;overflow=hidden;rotatable=0;points=[[0,0.5],[1,0.5]];portConstraint=eastwest;whiteSpace=wrap;html=1;fontColor=#000000;rounded=1;" parent="vE8cVtgclTKIGlRAaDoy-49" vertex="1">
          <mxGeometry y="77" width="411" height="48" as="geometry" />
        </mxCell>
        <mxCell id="vE8cVtgclTKIGlRAaDoy-57" value="Measurement - ${deviceId} (each Smart Box is a measurement)" style="swimlane;fontStyle=1;align=center;verticalAlign=top;childLayout=stackLayout;horizontal=1;startSize=26;horizontalStack=0;resizeParent=1;resizeParentMax=0;resizeLast=0;collapsible=1;marginBottom=0;whiteSpace=wrap;html=1;strokeColor=#457B9D;fontColor=#000000;fillColor=#A8DADC;rounded=1;" parent="WIyWlLk6GJQsqaUBKTNV-1" vertex="1">
          <mxGeometry x="242" y="402" width="411" height="670" as="geometry" />
        </mxCell>
        <mxCell id="vE8cVtgclTKIGlRAaDoy-58" value="&lt;div&gt;&lt;span style=&quot;background-color: transparent;&quot;&gt;&lt;font style=&quot;&quot;&gt;+ tag: type (str)&lt;/font&gt;&lt;/span&gt;&lt;/div&gt;&lt;div&gt;&lt;font style=&quot;&quot;&gt;&lt;div&gt;+ tag: version (converted from int to str)&lt;/div&gt;&lt;div&gt;+ tag: session (str)&lt;/div&gt;&lt;div&gt;+ tag: code (converted from int to str)&lt;/div&gt;&lt;div&gt;+ time: time (UNIX Timestamp) (int)&lt;/div&gt;&lt;div&gt;&lt;br&gt;&lt;/div&gt;&lt;/font&gt;&lt;/div&gt;" style="text;strokeColor=none;fillColor=none;align=left;verticalAlign=top;spacingLeft=4;spacingRight=4;overflow=hidden;rotatable=0;points=[[0,0.5],[1,0.5]];portConstraint=eastwest;whiteSpace=wrap;html=1;fontColor=#000000;rounded=1;flipH=1;flipV=1;" parent="vE8cVtgclTKIGlRAaDoy-57" vertex="1">
          <mxGeometry y="26" width="411" height="81" as="geometry" />
        </mxCell>
        <mxCell id="vE8cVtgclTKIGlRAaDoy-59" value="" style="line;strokeWidth=1;fillColor=none;align=left;verticalAlign=middle;spacingTop=-1;spacingLeft=3;spacingRight=3;rotatable=0;labelPosition=right;points=[];portConstraint=eastwest;strokeColor=inherit;fontColor=#000000;rounded=1;" parent="vE8cVtgclTKIGlRAaDoy-57" vertex="1">
          <mxGeometry y="107" width="411" height="8" as="geometry" />
        </mxCell>
        <mxCell id="vE8cVtgclTKIGlRAaDoy-60" value="&lt;div&gt;Field: spdAlert, Type: bool&lt;/div&gt;&lt;div&gt;Field: spdSurge, Type: int&lt;/div&gt;&lt;div&gt;Field: ardState, Type: bool&lt;/div&gt;&lt;div&gt;Field: ardAlert, Type: bool&lt;/div&gt;&lt;div&gt;Field: ardVoltage, Type: int&lt;/div&gt;&lt;div&gt;Field: ardCurrent, Type: int&lt;/div&gt;&lt;div&gt;Field: autoLight, Type: bool&lt;/div&gt;&lt;div&gt;Field: doorState, Type: bool&lt;/div&gt;&lt;div&gt;Field: lightState, Type: bool&lt;/div&gt;&lt;div&gt;Field: heaterState, Type: bool&lt;/div&gt;&lt;div&gt;Field: waterAlert, Type: bool&lt;/div&gt;&lt;div&gt;Field: fan_1_id, Type: int&lt;/div&gt;&lt;div&gt;Field: fan_1_fanSpeed, Type: int&lt;/div&gt;&lt;div&gt;Field: fan_1_fanAlert, Type: bool&lt;/div&gt;&lt;div&gt;Field: fan_1_fanState, Type: bool&lt;/div&gt;&lt;div&gt;&lt;div&gt;Field: code, Type: int&lt;/div&gt;&lt;div&gt;Field: dateTime, Type: int&lt;/div&gt;&lt;div&gt;Field: runTime, Type: int&lt;/div&gt;&lt;div&gt;Field: cpuUsaged, Type: int&lt;/div&gt;&lt;div&gt;Field: memTotalSize, Type: int&lt;/div&gt;&lt;div&gt;Field: memFreeSize, Type: int&lt;/div&gt;&lt;div&gt;Field: memUsaged, Type: int&lt;/div&gt;&lt;div&gt;Field: storageTotalSize, Type: int&lt;/div&gt;&lt;div&gt;Field: storageFreeSize, Type: int&lt;/div&gt;&lt;div&gt;Field: storageUsaged, Type: int&lt;/div&gt;&lt;div&gt;Field: temperature, Type: int&lt;/div&gt;&lt;div&gt;Field: humitidy, Type: int&lt;/div&gt;&lt;div&gt;Field: poeRealPower, Type: int&lt;/div&gt;&lt;/div&gt;&lt;div&gt;Field: n&lt;span style=&quot;background-color: transparent;&quot;&gt;_id, Type: int&lt;/span&gt;&lt;/div&gt;&lt;div&gt;Field: n_name, Type: str&lt;/div&gt;&lt;div&gt;Field: n_rxByte, Type: str&lt;/div&gt;&lt;div&gt;Field: n_txByte, Type: str&lt;/div&gt;&lt;div&gt;Field: n_rxPacket, Type: int&lt;/div&gt;&lt;div&gt;Field: n_txPacket, Type: int&lt;/div&gt;&lt;div&gt;Field: n_rxError, Type: int&lt;/div&gt;&lt;div&gt;Field: n_txError, Type: int&lt;/div&gt;&lt;div&gt;(where n = [1, 2, ..., 10])&lt;/div&gt;" style="text;strokeColor=none;fillColor=none;align=left;verticalAlign=top;spacingLeft=4;spacingRight=4;overflow=hidden;rotatable=0;points=[[0,0.5],[1,0.5]];portConstraint=eastwest;whiteSpace=wrap;html=1;fontColor=#000000;rounded=1;" parent="vE8cVtgclTKIGlRAaDoy-57" vertex="1">
          <mxGeometry y="115" width="411" height="555" as="geometry" />
        </mxCell>
        <mxCell id="vE8cVtgclTKIGlRAaDoy-61" style="edgeStyle=orthogonalEdgeStyle;rounded=1;orthogonalLoop=1;jettySize=auto;html=1;entryX=0.348;entryY=1.051;entryDx=0;entryDy=0;entryPerimeter=0;fillColor=#60a917;strokeColor=#2D7600;fontColor=#000000;" parent="WIyWlLk6GJQsqaUBKTNV-1" source="vE8cVtgclTKIGlRAaDoy-11" target="vE8cVtgclTKIGlRAaDoy-52" edge="1">
          <mxGeometry relative="1" as="geometry">
            <Array as="points">
              <mxPoint x="215" y="975" />
              <mxPoint x="215" y="1195" />
              <mxPoint x="833" y="1195" />
            </Array>
          </mxGeometry>
        </mxCell>
        <mxCell id="vE8cVtgclTKIGlRAaDoy-63" style="edgeStyle=orthogonalEdgeStyle;rounded=1;orthogonalLoop=1;jettySize=auto;html=1;entryX=0;entryY=0.5;entryDx=0;entryDy=0;fillColor=#d80073;strokeColor=#A50040;fontColor=#000000;" parent="WIyWlLk6GJQsqaUBKTNV-1" source="vE8cVtgclTKIGlRAaDoy-3" target="vE8cVtgclTKIGlRAaDoy-60" edge="1">
          <mxGeometry relative="1" as="geometry">
            <Array as="points">
              <mxPoint x="150" y="645" />
              <mxPoint x="150" y="795" />
            </Array>
          </mxGeometry>
        </mxCell>
        <mxCell id="vE8cVtgclTKIGlRAaDoy-65" style="edgeStyle=orthogonalEdgeStyle;rounded=1;orthogonalLoop=1;jettySize=auto;html=1;exitX=0;exitY=0.5;exitDx=0;exitDy=0;fillColor=#d80073;strokeColor=#A50040;fontColor=#000000;entryX=0.002;entryY=0.187;entryDx=0;entryDy=0;entryPerimeter=0;" parent="WIyWlLk6GJQsqaUBKTNV-1" source="jzO3m--2G4woEG_lxLCf-43" target="vE8cVtgclTKIGlRAaDoy-60" edge="1">
          <mxGeometry relative="1" as="geometry">
            <Array as="points">
              <mxPoint x="-797" y="350" />
              <mxPoint x="206" y="350" />
              <mxPoint x="206" y="621" />
            </Array>
          </mxGeometry>
        </mxCell>
        <mxCell id="vE8cVtgclTKIGlRAaDoy-41" value="&lt;font style=&quot;font-size: 60px;&quot;&gt;Sent by app.py&lt;/font&gt;" style="text;html=1;align=center;verticalAlign=middle;whiteSpace=wrap;rounded=0;fontColor=#000000;" parent="WIyWlLk6GJQsqaUBKTNV-1" vertex="1">
          <mxGeometry x="-1698.5" y="207.5" width="684" height="136" as="geometry" />
        </mxCell>
        <mxCell id="vE8cVtgclTKIGlRAaDoy-40" value="&lt;font style=&quot;font-size: 60px;&quot;&gt;Sent by Smart Box&lt;/font&gt;" style="text;html=1;align=center;verticalAlign=middle;whiteSpace=wrap;rounded=0;fontColor=#000000;" parent="WIyWlLk6GJQsqaUBKTNV-1" vertex="1">
          <mxGeometry x="-694.5" y="207.5" width="684" height="136" as="geometry" />
        </mxCell>
        <mxCell id="vE8cVtgclTKIGlRAaDoy-43" value="&lt;font style=&quot;font-size: 60px;&quot;&gt;InfluxDB&lt;/font&gt;" style="text;html=1;align=center;verticalAlign=middle;whiteSpace=wrap;rounded=0;fontColor=#000000;" parent="WIyWlLk6GJQsqaUBKTNV-1" vertex="1">
          <mxGeometry x="312.5" y="207.5" width="684" height="136" as="geometry" />
        </mxCell>
        <mxCell id="O2uxPr53_rWJU0_XId5V-1" style="edgeStyle=orthogonalEdgeStyle;rounded=1;orthogonalLoop=1;jettySize=auto;html=1;entryX=0.001;entryY=0.772;entryDx=0;entryDy=0;entryPerimeter=0;fillColor=#a20025;strokeColor=#6F0000;curved=0;" edge="1" parent="WIyWlLk6GJQsqaUBKTNV-1" source="vE8cVtgclTKIGlRAaDoy-7" target="vE8cVtgclTKIGlRAaDoy-60">
          <mxGeometry relative="1" as="geometry">
            <Array as="points">
              <mxPoint x="-563" y="1285" />
              <mxPoint x="150" y="1285" />
              <mxPoint x="150" y="946" />
            </Array>
          </mxGeometry>
        </mxCell>
      </root>
    </mxGraphModel>
  </diagram>
</mxfile>
